<svg version="1.1" id="Layer_1" xmlns="http://www.w3.org/2000/svg" xmlns:xlink="http://www.w3.org/1999/xlink" x="0px" y="0px"
	 width="100%" viewBox="0 0 500 500" enable-background="new 0 0 500 500" xml:space="preserve">
<path fill="#000000" opacity="1.000000" stroke="none" 
	d="
M228.000000,501.000000 
	C152.000015,501.000000 76.500038,501.000000 1.000041,501.000000 
	C1.000027,334.333405 1.000027,167.666779 1.000013,1.000130 
	C167.666565,1.000087 334.333130,1.000087 500.999756,1.000043 
	C500.999847,167.666534 500.999847,334.333069 500.999939,500.999817 
	C410.166656,501.000000 319.333344,501.000000 228.000000,501.000000 
M211.868408,284.483154 
	C211.581848,284.313416 211.295288,284.143646 211.001144,284.003723 
	C211.001144,284.003723 211.024948,283.983368 210.742172,283.421570 
	C210.191711,282.604889 209.641266,281.788208 209.074326,280.935242 
	C209.074326,280.935242 209.034607,280.938812 208.937897,280.425507 
	C208.643829,280.269012 208.349762,280.112518 208.064499,279.923370 
	C208.064499,279.923370 208.041336,279.898743 207.822845,279.298798 
	C205.900299,278.966370 203.977753,278.633911 201.195602,278.214691 
	C199.475708,278.294983 197.755814,278.375275 195.176849,278.272827 
	C191.142227,278.594086 187.107620,278.915375 182.379364,279.173981 
	C181.916092,279.192047 181.452805,279.210083 180.506622,279.154022 
	C180.506622,279.154022 180.030121,279.261993 179.390671,279.175507 
	C178.961441,279.150208 178.532227,279.124908 177.443085,279.031525 
	C177.016144,279.714203 176.589188,280.396881 176.089157,281.077698 
	C176.089157,281.077698 176.090912,281.150787 175.408997,281.426788 
	C174.479965,283.172180 173.190384,284.820251 172.688171,286.680878 
	C171.050873,292.747009 169.701019,298.890717 167.834610,305.652374 
	C165.923126,312.426575 163.914566,319.175323 162.131256,325.983093 
	C160.736572,331.307281 159.621231,336.704590 158.185486,342.945770 
	C158.244278,345.938232 158.303070,348.930695 158.236938,352.656891 
	C158.135727,353.141754 158.034531,353.626648 157.134048,354.438385 
	C157.091415,366.456482 157.030685,378.474609 157.045731,390.492615 
	C157.046753,391.318390 157.614273,392.143463 157.967514,393.669220 
	C159.008118,395.067413 160.048706,396.465576 161.102524,397.947357 
	C161.102524,397.947357 161.187103,397.944885 161.315231,398.360107 
	C161.477234,398.631470 161.715698,398.780731 162.445602,398.940582 
	C162.445602,398.940582 162.881210,398.935577 163.268524,399.748871 
	C178.746475,399.832062 194.224457,399.987518 209.702393,399.984344 
	C249.502213,399.976196 289.302032,399.897705 329.805847,399.938080 
	C331.486755,398.961975 333.167633,397.985870 335.091034,396.437103 
	C335.418579,395.911285 335.746124,395.385468 336.850525,394.502472 
	C336.899780,376.489685 336.961914,358.476868 336.956299,340.464081 
	C336.956055,339.654388 336.342316,338.844849 335.911987,337.247711 
	C333.923706,330.547302 331.935425,323.846893 329.871368,316.598053 
	C329.851776,316.414581 329.832153,316.231079 330.009918,315.262756 
	C327.989838,308.840729 325.969757,302.418701 323.879974,295.372864 
	C323.858459,294.954987 323.836914,294.537079 323.984283,293.401855 
	C323.321838,291.921631 322.659424,290.441376 321.837250,288.348999 
	C321.773468,287.932129 321.709686,287.515289 321.828247,286.436340 
	C321.218262,285.287506 320.608246,284.138672 319.997559,283.003662 
	C319.997559,283.003662 320.011566,283.001068 319.980774,282.278381 
	C318.633728,281.286713 317.286682,280.295013 315.509064,279.122711 
	C315.509064,279.122711 315.063385,278.983276 314.864838,278.594421 
	C314.546387,278.718231 314.227905,278.842041 313.444885,279.051666 
	C313.444885,279.051666 312.985474,279.161743 312.248322,279.038605 
	C311.504120,279.075226 310.759888,279.111847 309.168640,279.035492 
	C302.445404,278.743439 295.722168,278.451385 288.237274,278.044464 
	C286.811310,278.340515 285.385315,278.636597 283.399536,279.123901 
	C282.942474,279.464935 282.485413,279.805969 281.318298,280.211639 
	C276.342651,282.110199 273.110260,285.487122 272.408722,291.761261 
	C284.559570,291.806946 296.710388,291.852631 309.226715,292.557037 
	C309.804077,295.583344 310.169617,298.668884 310.996246,301.625488 
	C314.206573,313.107178 317.563446,324.547882 320.487000,336.070587 
	C320.487000,336.070587 320.135254,336.226135 319.185059,336.019989 
	C270.776215,335.990601 222.367386,335.961243 174.142838,335.992218 
	C174.142838,335.992218 174.205231,335.808624 174.555313,335.134308 
	C175.255966,331.947418 175.919067,328.751709 176.665009,325.575439 
	C178.298569,318.619598 179.974091,311.673615 181.719910,304.343018 
	C181.719910,304.343018 181.604340,303.970032 181.674927,303.660645 
	C181.674927,303.660645 181.580048,303.357819 181.555405,303.289551 
	C181.555405,303.289551 181.496887,303.332489 182.028778,303.089539 
	C183.375168,299.725372 184.721558,296.361176 186.513748,292.103607 
	C194.809143,292.060150 203.105240,292.061829 211.399246,291.930603 
	C212.851273,291.907623 214.294479,291.326172 215.781555,290.376190 
	C215.180695,289.590485 214.579819,288.804810 214.001099,288.000977 
	C214.001099,288.000977 213.975372,288.011230 213.935974,287.410492 
	C213.627411,286.936523 213.318848,286.462585 212.999390,286.000000 
	C212.999390,286.000000 213.013031,285.994019 212.871124,285.501282 
	C212.591141,285.321747 212.311157,285.142181 212.000000,285.000000 
	C212.000000,285.000000 212.037140,284.968597 211.868408,284.483154 
M219.562027,134.250381 
	C219.275513,134.432419 219.074341,134.682983 218.223221,135.153656 
	C208.578705,139.227539 198.819061,143.052521 189.322525,147.446243 
	C180.069763,151.727188 171.086166,156.589951 161.248962,161.095322 
	C158.581009,162.433441 155.913040,163.771561 153.108459,165.089294 
	C153.108459,165.089294 153.024033,165.198593 152.426178,165.130753 
	C151.961334,165.434677 151.496490,165.738602 150.593506,166.121246 
	C150.593506,166.121246 150.151459,166.173676 149.372818,166.043167 
	C145.068527,167.231613 145.536453,170.869125 146.229736,173.705673 
	C146.714111,175.687546 148.714355,177.717636 150.571854,178.848663 
	C153.478546,180.618546 156.837128,181.646301 160.244461,183.808426 
	C160.466934,191.553574 160.689407,199.298721 160.221924,206.945328 
	C159.807449,207.628738 159.392975,208.312149 159.001740,209.006104 
	C159.001740,209.006104 158.997299,208.981232 158.355331,209.357651 
	C157.995911,211.535828 157.636475,213.714020 157.198380,216.633606 
	C157.179947,217.378952 157.161514,218.124313 156.989197,219.604568 
	C157.719299,221.402679 158.449417,223.200790 159.118576,225.537064 
	C159.086807,225.714798 159.055038,225.892517 158.569702,226.201706 
	C158.261932,226.403259 158.159424,226.680710 158.167938,227.646652 
	C158.100677,228.054016 158.033417,228.461395 157.396729,229.173279 
	C157.378448,229.786453 157.360153,230.399612 157.167313,231.493881 
	C157.113846,231.655869 157.060379,231.817871 156.392548,232.373444 
	C154.620010,237.591415 152.645416,242.756531 151.254501,248.074326 
	C150.993088,249.073807 153.061325,250.682632 154.391922,252.816666 
	C160.785217,252.876663 167.179474,253.020874 173.571289,252.948761 
	C175.671768,252.925064 177.765961,252.340973 180.511993,251.603500 
	C180.988892,250.087814 182.124100,248.423264 181.821228,247.083923 
	C180.851654,242.796371 179.108536,238.685028 178.116943,234.400833 
	C177.015411,229.641541 173.265533,225.570297 176.584534,219.640579 
	C178.371506,216.447983 178.402115,210.592590 173.000000,207.998169 
	C173.000000,207.998169 173.030975,207.985977 173.082214,207.321640 
	C172.744064,206.797775 172.405899,206.273926 172.015015,204.849548 
	C172.015015,199.799164 172.015015,194.748779 172.015015,189.191559 
	C177.102203,191.263672 181.139343,192.634384 184.914154,194.528030 
	C188.224503,196.188705 190.192352,195.655670 192.387558,192.590515 
	C193.803802,190.613037 196.313248,188.973663 198.667831,188.191864 
	C207.685852,185.197586 216.838547,182.608566 225.942719,179.874069 
	C233.661514,177.555710 241.477417,173.112671 249.079758,173.450348 
	C259.489777,173.912766 269.773560,177.876251 280.042175,180.600449 
	C285.697510,182.100784 291.251984,184.019501 296.776642,185.963531 
	C302.061920,187.823349 308.159058,188.337692 310.982880,194.586166 
	C311.332458,195.359772 314.465302,195.674957 315.805908,195.076614 
	C328.107452,189.586212 340.235260,183.704422 352.564880,178.280380 
	C355.658936,176.919266 356.993591,174.984772 356.716125,172.025085 
	C356.421692,168.884613 354.580353,166.696609 351.288361,166.006866 
	C350.206177,165.780151 349.084412,165.556671 348.098053,165.085907 
	C333.305634,158.025818 318.574707,150.835602 303.741028,143.863831 
	C293.590546,139.093170 283.303345,134.613403 272.893463,129.503311 
	C272.579407,129.384659 272.265350,129.266006 271.330841,129.048874 
	C270.582703,128.699814 269.834564,128.350769 268.912811,127.478958 
	C268.585938,127.379883 268.259033,127.280800 267.278442,127.144714 
	C266.844421,127.098976 266.410431,127.053230 265.794006,126.619614 
	C265.610352,126.350052 265.359100,126.249649 264.434204,126.034317 
	C263.618042,125.699738 262.801849,125.365150 261.643188,124.455963 
	C260.414978,124.063049 259.186768,123.670135 257.523499,123.113029 
	C257.523499,123.113029 257.073395,122.996231 256.739532,122.333908 
	C255.468170,121.991600 254.196823,121.649284 252.125183,121.229271 
	C250.785355,121.229782 249.445541,121.230286 247.361862,120.970131 
	C244.262039,122.659157 241.162216,124.348183 238.008530,126.002983 
	C238.008530,126.002983 238.031967,126.062332 237.439194,126.128014 
	C236.946335,126.416199 236.453476,126.704391 235.349747,127.072281 
	C234.941772,127.118988 234.533798,127.165688 233.395126,127.055336 
	C229.546646,129.033005 225.698166,131.010681 221.407730,133.120651 
	C221.407730,133.120651 220.974045,133.278015 220.548920,133.326981 
	C220.283081,133.485809 220.134933,133.719315 220.027664,134.025940 
	C220.027664,134.025940 220.027603,134.102783 219.562027,134.250381 
M269.530548,282.742310 
	C269.991943,282.148346 270.453339,281.554382 270.983093,280.966675 
	C270.983093,280.966675 270.946930,280.908295 271.539581,280.674286 
	C272.602325,279.403290 273.665039,278.132294 274.839966,276.793579 
	C274.839966,276.793579 274.857422,276.663696 275.506775,276.546814 
	C280.120850,272.088806 284.799957,267.695282 289.316711,263.140717 
	C291.099426,261.343109 292.520264,259.186554 294.190765,257.186035 
	C294.190765,257.186035 294.193634,257.100861 294.915833,257.064941 
	C297.345428,254.298874 300.228638,251.586151 295.855988,247.512756 
	C295.809937,247.340164 295.763916,247.167587 295.690247,246.543121 
	C295.542603,246.258041 295.314850,246.069931 294.906616,245.264008 
	C288.003662,239.292160 286.498566,239.288620 280.300598,245.221680 
	C276.372040,248.982346 272.348328,252.648956 268.530151,256.518524 
	C260.867523,264.284332 253.252502,272.099792 245.756973,280.026337 
	C243.401031,282.517731 241.360428,281.812103 239.483154,279.900726 
	C235.334503,275.676697 231.467010,271.174042 227.266937,267.004547 
	C225.968796,265.715881 224.060349,264.708008 222.268555,264.316345 
	C217.783615,263.335999 215.226364,266.190002 213.269867,269.682861 
	C211.265366,273.261322 211.633438,276.590424 214.441650,279.685181 
	C221.847427,287.846588 229.063110,296.186462 236.650543,304.174072 
	C239.548019,307.224335 243.793976,308.206451 247.129623,305.117371 
	C251.777145,300.813385 255.779129,295.812347 260.669556,290.948151 
	C261.432495,290.289856 262.195435,289.631561 263.413330,288.739349 
	C263.592377,288.454834 263.771423,288.170319 264.504456,287.710052 
	C265.001190,287.139099 265.497894,286.568146 266.433502,285.741089 
	C266.604889,285.453918 266.776306,285.166748 267.499786,284.707642 
	C267.983093,284.134521 268.466400,283.561401 269.003937,282.999786 
	C269.003937,282.999786 268.985687,282.947388 269.530548,282.742310 
M305.925171,225.998535 
	C305.937012,218.874863 306.024872,211.750000 305.914764,204.628204 
	C305.881317,202.463684 305.301605,200.307602 304.693054,197.505539 
	C302.690582,196.086716 300.881866,194.048294 298.653595,193.351425 
	C285.898132,189.362152 273.055023,185.650162 260.213989,181.939713 
	C256.602905,180.896255 252.837952,179.291672 249.253128,179.538055 
	C245.117645,179.822311 241.103409,181.870163 236.271179,183.084045 
	C233.170456,184.389496 230.069717,185.694946 226.488052,187.073044 
	C226.488052,187.073044 226.009247,187.158401 225.242538,187.025909 
	C223.142288,187.668228 221.042023,188.310547 218.994141,188.988480 
	C218.994141,188.988480 218.987839,188.925476 218.172943,188.900513 
	C212.704483,190.498779 207.197540,191.981659 201.796997,193.783463 
	C200.578735,194.189911 199.731125,195.707367 198.748047,196.845322 
	C198.748047,196.845322 198.879883,196.809860 198.357315,196.969681 
	C198.176834,197.273743 197.996338,197.577805 197.712616,197.787735 
	C197.712616,197.787735 197.612503,197.885193 197.258652,198.338654 
	C197.165649,198.908737 197.072647,199.478806 196.250076,200.497299 
	C196.176804,207.868515 196.035965,215.240112 196.078278,222.610672 
	C196.088730,224.430588 196.694534,226.247086 197.491882,228.715714 
	C199.297256,228.797577 201.308273,229.441483 202.874054,228.868561 
	C211.927307,225.555908 220.870605,226.251694 229.847534,228.991180 
	C232.934738,229.933319 236.022507,230.873596 239.565536,231.845413 
	C239.565536,231.845413 240.003479,231.974533 240.264511,232.628387 
	C246.298279,236.954315 252.385101,240.219604 259.220428,234.001389 
	C259.907440,233.376373 261.066620,233.300507 261.945679,232.850601 
	C264.328522,231.631012 266.678558,230.347305 269.039764,229.046432 
	C269.039764,229.046432 269.075195,229.070145 269.879150,229.048080 
	C270.533325,228.950989 271.209320,228.928818 271.838379,228.745544 
	C280.741028,226.151672 289.531525,225.808167 298.479248,228.961136 
	C300.561615,229.694931 303.366516,228.378265 305.900208,227.464554 
	C305.874908,227.285004 305.849640,227.105469 305.925171,225.998535 
M212.556351,320.717224 
	C236.029190,320.720490 259.502014,320.723785 283.598328,320.457855 
	C286.613007,318.873779 288.944214,316.451141 287.761200,313.035126 
	C286.968262,310.745544 284.579224,309.008728 282.500427,306.267334 
	C273.650757,306.186432 264.801117,306.085266 255.951355,306.072052 
	C255.386139,306.071198 254.819901,306.751831 253.749573,307.644775 
	C252.691818,308.248657 251.444641,308.661072 250.608093,309.488586 
	C246.275314,313.774506 242.376678,314.088684 237.144180,310.669312 
	C234.937225,309.227142 232.560776,307.328949 230.123947,307.099854 
	C224.712006,306.591125 219.158310,307.501648 213.765350,306.904297 
	C208.329758,306.302185 207.779800,309.607391 207.076706,313.334534 
	C206.287842,317.516327 208.297058,319.473419 212.556351,320.717224 
z"/>
<path fill="#026C6E" opacity="1.000000" stroke="none" 
	d="
M196.035919,278.455566 
	C197.755814,278.375275 199.475708,278.294983 201.899475,278.462860 
	C204.416000,279.106934 206.228668,279.502838 208.041336,279.898743 
	C208.041336,279.898743 208.064499,279.923370 208.190491,280.134155 
	C208.517883,280.588806 208.757248,280.786774 209.034607,280.938812 
	C209.034607,280.938812 209.074326,280.935242 209.080353,281.290771 
	C209.732574,282.425354 210.378754,283.204376 211.024933,283.983368 
	C211.024948,283.983368 211.001144,284.003723 211.140503,284.189331 
	C211.490402,284.626282 211.742844,284.824158 212.037140,284.968597 
	C212.037140,284.968597 212.000000,285.000000 212.141418,285.186890 
	C212.481522,285.633148 212.724915,285.839874 213.013031,285.994019 
	C213.013031,285.994019 212.999390,286.000000 213.046295,286.279694 
	C213.387268,287.043335 213.681320,287.527283 213.975372,288.011230 
	C213.975372,288.011230 214.001099,288.000977 213.933807,288.310455 
	C213.559570,289.372803 213.252640,290.125641 212.627502,290.936646 
	C211.881592,290.950073 211.453903,290.905365 210.661133,290.664490 
	C202.189941,290.628448 194.083847,290.788544 185.978134,290.977753 
	C185.978531,291.006866 185.932007,290.971832 185.622574,291.135498 
	C181.944504,294.645386 180.696335,298.664062 181.496887,303.332489 
	C181.496887,303.332489 181.555405,303.289551 181.393860,303.327911 
	C181.356339,303.567535 181.480331,303.768768 181.604340,303.970032 
	C181.604340,303.970032 181.719910,304.343018 181.355591,304.790649 
	C178.088867,314.494476 175.132477,323.734802 172.394516,333.039368 
	C172.192642,333.725464 173.564819,334.874695 174.205231,335.808624 
	C174.205231,335.808624 174.142838,335.992218 174.104736,336.188232 
	C174.066650,336.384277 174.035431,336.848358 174.362885,337.102234 
	C176.482483,337.571747 178.274490,337.974365 180.066788,337.975739 
	C224.451065,338.009949 268.835358,338.012512 313.219635,337.964752 
	C315.162689,337.962646 317.105194,337.430267 319.277588,337.052856 
	C319.822174,336.806213 320.031525,336.561340 320.135254,336.226135 
	C320.135254,336.226135 320.487000,336.070587 320.923279,335.745575 
	C321.367096,333.812164 321.693787,332.127838 321.331879,330.607391 
	C318.362457,318.132690 315.324280,305.672974 312.088684,293.265656 
	C311.841858,292.319244 309.922363,291.809021 308.582062,291.071289 
	C308.383759,291.046570 308.010254,290.904297 307.652161,290.699219 
	C296.570923,290.494110 285.847748,290.494110 274.278900,290.494110 
	C277.551056,286.125092 279.789703,283.136047 282.028351,280.147003 
	C282.485413,279.805969 282.942474,279.464935 283.952148,279.238647 
	C286.002838,278.955383 287.500885,278.557343 288.998932,278.159332 
	C295.722168,278.451385 302.445404,278.743439 309.816162,279.249298 
	C311.304291,279.362640 312.144897,279.262207 312.985474,279.161743 
	C312.985474,279.161743 313.444885,279.051666 313.965729,279.017517 
	C314.678864,278.983307 314.871124,278.983307 315.063385,278.983276 
	C315.063385,278.983276 315.509064,279.122711 315.818604,279.520081 
	C317.422638,280.945343 318.717102,281.973206 320.011566,283.001068 
	C320.011566,283.001068 319.997559,283.003662 319.998566,283.344360 
	C320.548340,284.822815 321.097107,285.960602 321.645874,287.098419 
	C321.709686,287.515289 321.773468,287.932129 321.915863,289.036469 
	C322.601440,291.189026 323.208435,292.654114 323.815399,294.119202 
	C323.836914,294.537079 323.858459,294.954987 323.750702,295.966949 
	C325.685120,303.056549 327.748810,309.552032 329.812500,316.047546 
	C329.832153,316.231079 329.851776,316.414581 329.917633,317.298950 
	C330.355164,320.771545 330.666168,323.557434 331.153473,326.312164 
	C332.391815,333.312378 334.503662,340.262543 334.823029,347.298248 
	C335.418854,360.425201 335.190247,373.603699 334.854645,386.749207 
	C334.766663,390.194427 333.024780,393.597443 331.687927,397.237610 
	C329.196533,397.637695 327.059723,397.977875 324.922760,397.979126 
	C273.536255,398.009430 222.149734,397.993286 170.763275,398.037567 
	C168.478683,398.039551 166.194534,398.531647 163.655975,398.852844 
	C163.228256,398.918701 163.054733,398.927124 162.881210,398.935577 
	C162.881210,398.935577 162.445602,398.940582 162.116180,398.711792 
	C161.615219,398.272034 161.415344,398.092651 161.187103,397.944885 
	C161.187103,397.944885 161.102524,397.947357 161.103149,397.569641 
	C160.418793,385.866669 159.762024,374.539612 159.028564,363.217529 
	C158.849365,360.451263 158.418854,357.701294 158.029541,354.742249 
	C157.955200,354.540649 157.933334,354.111511 157.933334,354.111511 
	C158.034531,353.626648 158.135727,353.141754 158.461639,351.945068 
	C158.584824,348.178619 158.483276,345.124023 158.381744,342.069427 
	C159.621231,336.704590 160.736572,331.307281 162.131256,325.983093 
	C163.914566,319.175323 165.923126,312.426575 168.298401,305.102966 
	C171.205109,296.752625 173.648010,288.951721 176.090912,281.150787 
	C176.090912,281.150787 176.089157,281.077698 176.399536,280.980011 
	C177.174286,280.288086 177.638641,279.693848 178.102997,279.099609 
	C178.532227,279.124908 178.961441,279.150208 179.822479,279.292297 
	C180.254303,279.409088 180.646088,279.425598 180.646088,279.425598 
	C180.646088,279.425598 180.989532,279.228149 180.989532,279.228149 
	C181.452805,279.210083 181.916092,279.192047 183.082138,279.379883 
	C187.868576,279.209015 191.952255,278.832275 196.035919,278.455566 
z"/>
<path fill="#046C6E" opacity="1.000000" stroke="none" 
	d="
M265.976410,127.007492 
	C266.410431,127.053230 266.844421,127.098976 267.774048,127.332138 
	C268.510834,127.732903 268.783081,127.893616 269.086426,128.001709 
	C269.834564,128.350769 270.582703,128.699814 271.807648,129.267975 
	C272.520142,129.703125 272.784424,129.875305 273.077271,130.003586 
	C283.303345,134.613403 293.590546,139.093170 303.741028,143.863831 
	C318.574707,150.835602 333.305634,158.025818 348.098053,165.085907 
	C349.084412,165.556671 350.206177,165.780151 351.288361,166.006866 
	C354.580353,166.696609 356.421692,168.884613 356.716125,172.025085 
	C356.993591,174.984772 355.658936,176.919266 352.564880,178.280380 
	C340.235260,183.704422 328.107452,189.586212 315.805908,195.076614 
	C314.465302,195.674957 311.332458,195.359772 310.982880,194.586166 
	C308.159058,188.337692 302.061920,187.823349 296.776642,185.963531 
	C291.251984,184.019501 285.697510,182.100784 280.042175,180.600449 
	C269.773560,177.876251 259.489777,173.912766 249.079758,173.450348 
	C241.477417,173.112671 233.661514,177.555710 225.942719,179.874069 
	C216.838547,182.608566 207.685852,185.197586 198.667831,188.191864 
	C196.313248,188.973663 193.803802,190.613037 192.387558,192.590515 
	C190.192352,195.655670 188.224503,196.188705 184.914154,194.528030 
	C181.139343,192.634384 177.102203,191.263672 172.015015,189.191559 
	C172.015015,194.748779 172.015015,199.799164 172.072021,205.614319 
	C172.429672,206.914719 172.730316,207.450348 173.030975,207.985977 
	C173.030975,207.985977 173.000000,207.998169 173.023926,208.379944 
	C174.461517,213.006134 176.015305,217.139542 173.324036,221.618164 
	C172.641052,222.754761 173.219528,224.891373 173.680603,226.429977 
	C175.340195,231.968185 177.157150,237.460648 178.990982,242.944870 
	C180.900635,248.655853 179.534164,250.866165 173.729935,250.975586 
	C168.589600,251.072479 163.444199,251.082535 158.304382,250.973419 
	C153.212814,250.865341 152.077576,248.796326 153.743805,243.878311 
	C155.061188,239.989975 155.935715,235.951630 157.006912,231.979889 
	C157.060379,231.817871 157.113846,231.655869 157.478027,231.164658 
	C157.847885,230.179871 157.907028,229.524323 157.966156,228.868759 
	C158.033417,228.461395 158.100677,228.054016 158.366119,227.199219 
	C158.753326,226.548859 158.906326,226.321671 159.023285,226.070221 
	C159.055038,225.892517 159.086807,225.714798 159.324112,224.980286 
	C158.734116,222.572220 157.938599,220.720932 157.143082,218.869659 
	C157.161514,218.124313 157.179947,217.378952 157.414124,215.969421 
	C158.085663,213.197220 158.541489,211.089233 158.997299,208.981232 
	C158.997299,208.981232 159.001740,209.006104 159.342606,208.981247 
	C160.435181,208.212357 161.186890,207.468323 161.950272,206.543610 
	C161.961945,206.362946 162.130417,206.042465 162.330444,205.678879 
	C162.693710,201.199631 162.550812,197.043610 163.086884,192.977097 
	C164.064575,185.560318 161.987549,180.950104 154.249939,178.170532 
	C145.976990,175.198685 146.093384,173.917007 150.151459,166.173676 
	C150.151459,166.173676 150.593506,166.121246 151.084991,166.036530 
	C152.059006,165.700729 152.541519,165.449661 153.024033,165.198608 
	C153.024033,165.198593 153.108459,165.089294 153.537964,165.074310 
	C156.639786,163.771973 159.312088,162.484619 161.984390,161.197266 
	C171.086166,156.589951 180.069763,151.727188 189.322525,147.446243 
	C198.819061,143.052521 208.578705,139.227539 218.793625,134.958282 
	C219.621155,134.578995 219.842346,134.358948 220.027603,134.102783 
	C220.027603,134.102783 220.027664,134.025940 220.225525,133.919800 
	C220.628357,133.657150 220.811920,133.478592 220.974045,133.278015 
	C220.974045,133.278015 221.407730,133.120651 222.037170,133.058975 
	C227.062531,132.210373 231.640594,131.784195 234.125824,127.212387 
	C234.533798,127.165688 234.941772,127.118988 235.879028,127.106148 
	C236.949539,126.780792 237.490753,126.421562 238.031967,126.062332 
	C238.031967,126.062332 238.008530,126.002983 238.378433,125.997391 
	C242.402451,125.456284 246.141235,125.087181 248.105713,121.230789 
	C249.445541,121.230286 250.785355,121.229782 252.694275,121.559372 
	C254.533386,122.258385 255.803391,122.627312 257.073395,122.996231 
	C257.073395,122.996231 257.523499,123.113029 257.854004,123.466202 
	C259.451599,124.223106 260.718628,124.626839 261.985687,125.030563 
	C262.801849,125.365150 263.618042,125.699738 264.874329,126.315323 
	C265.512665,126.769485 265.733337,126.906540 265.976410,127.007492 
z"/>
<path fill="#036C6E" opacity="1.000000" stroke="none" 
	d="
M237.036499,183.152161 
	C241.103409,181.870163 245.117645,179.822311 249.253128,179.538055 
	C252.837952,179.291672 256.602905,180.896255 260.213989,181.939713 
	C273.055023,185.650162 285.898132,189.362152 298.653595,193.351425 
	C300.881866,194.048294 302.690582,196.086716 304.858704,198.120514 
	C304.988037,199.125381 304.951721,199.515305 304.708710,200.269257 
	C304.316864,209.749710 304.131744,218.866135 303.540771,227.982391 
	C301.990875,227.844208 300.735107,227.965271 299.720398,227.527527 
	C290.906128,223.725220 281.931396,224.497879 272.951630,226.585724 
	C271.543091,226.913208 270.361664,228.217514 269.075195,229.070160 
	C269.075195,229.070145 269.039764,229.046432 268.633881,229.043091 
	C265.433777,229.884796 262.516724,230.454285 259.871582,231.633743 
	C254.759949,233.913055 249.976852,238.103333 244.314590,232.552933 
	C243.485352,231.740082 241.470001,232.137253 240.003479,231.974533 
	C240.003479,231.974533 239.565536,231.845413 239.187225,231.521851 
	C228.067978,224.715363 216.456482,223.662674 204.477768,226.196823 
	C197.971649,227.573227 198.065552,227.911209 197.986008,221.072342 
	C197.896103,213.342880 197.739899,205.614212 197.612518,197.885193 
	C197.612503,197.885193 197.712616,197.787735 197.988220,197.706039 
	C198.469177,197.352844 198.674530,197.081360 198.879883,196.809860 
	C198.879883,196.809860 198.748047,196.845322 199.119781,196.801117 
	C204.026428,195.315506 208.617477,194.024857 213.071732,192.366699 
	C215.178787,191.582306 217.024002,190.094559 218.987854,188.925476 
	C218.987839,188.925476 218.994141,188.988480 219.369263,188.990112 
	C221.832657,188.380646 223.920959,187.769516 226.009247,187.158401 
	C226.009247,187.158401 226.488052,187.073044 227.128693,187.040802 
	C230.858383,185.723083 233.947449,184.437622 237.036499,183.152161 
z"/>
<path fill="#066A6C" opacity="1.000000" stroke="none" 
	d="
M263.950500,287.885803 
	C263.771423,288.170319 263.592377,288.454834 262.847412,288.878479 
	C261.540100,289.714905 260.798737,290.412262 260.057373,291.109619 
	C255.779129,295.812347 251.777145,300.813385 247.129623,305.117371 
	C243.793976,308.206451 239.548019,307.224335 236.650543,304.174072 
	C229.063110,296.186462 221.847427,287.846588 214.441650,279.685181 
	C211.633438,276.590424 211.265366,273.261322 213.269867,269.682861 
	C215.226364,266.190002 217.783615,263.335999 222.268555,264.316345 
	C224.060349,264.708008 225.968796,265.715881 227.266937,267.004547 
	C231.467010,271.174042 235.334503,275.676697 239.483154,279.900726 
	C241.360428,281.812103 243.401031,282.517731 245.756973,280.026337 
	C253.252502,272.099792 260.867523,264.284332 268.530151,256.518524 
	C272.348328,252.648956 276.372040,248.982346 280.300598,245.221680 
	C286.498566,239.288620 288.003662,239.292160 295.042847,245.812073 
	C295.321899,246.602997 295.501495,246.814621 295.717865,246.995010 
	C295.763916,247.167587 295.809937,247.340164 295.913269,248.174042 
	C295.378235,251.590515 294.785919,254.345688 294.193634,257.100861 
	C294.193634,257.100861 294.190765,257.186035 293.803467,257.216370 
	C287.229919,263.719055 281.043671,270.191376 274.857422,276.663696 
	C274.857422,276.663696 274.839966,276.793579 274.445251,276.880676 
	C273.016022,278.281281 271.981476,279.594788 270.946930,280.908295 
	C270.946930,280.908295 270.983093,280.966675 270.665283,281.052307 
	C269.893555,281.741058 269.439636,282.344238 268.985687,282.947388 
	C268.985687,282.947388 269.003937,282.999786 268.690704,283.068878 
	C267.900909,283.718506 267.424316,284.299042 266.947723,284.879578 
	C266.776306,285.166748 266.604889,285.453918 265.923981,285.943115 
	C264.926483,286.725342 264.438477,287.305573 263.950500,287.885803 
z"/>
<path fill="#076B6D" opacity="1.000000" stroke="none" 
	d="
M282.904358,307.024567 
	C284.579224,309.008728 286.968262,310.745544 287.761200,313.035126 
	C288.944214,316.451141 286.613007,318.873779 282.930969,320.382660 
	C280.452362,320.203308 278.641266,320.011902 276.829773,320.008301 
	C255.300919,319.965759 233.772003,319.951172 212.243103,319.929260 
	C208.297058,319.473419 206.287842,317.516327 207.076706,313.334534 
	C207.779800,309.607391 208.329758,306.302185 213.765350,306.904297 
	C219.158310,307.501648 224.712006,306.591125 230.123947,307.099854 
	C232.560776,307.328949 234.937225,309.227142 237.144180,310.669312 
	C242.376678,314.088684 246.275314,313.774506 250.608093,309.488586 
	C251.444641,308.661072 252.691818,308.248657 254.447021,307.333008 
	C264.397766,307.022369 273.651062,307.023468 282.904358,307.024567 
z"/>
<path fill="#0E595C" opacity="1.000000" stroke="none" 
	d="
M163.910172,398.795471 
	C166.194534,398.531647 168.478683,398.039551 170.763275,398.037567 
	C222.149734,397.993286 273.536255,398.009430 324.922760,397.979126 
	C327.059723,397.977875 329.196533,397.637695 332.037903,397.234741 
	C333.444458,397.012665 334.146484,397.011200 334.848511,397.009766 
	C333.167633,397.985870 331.486755,398.961975 329.137695,399.601135 
	C305.700317,399.174774 282.931183,399.063416 260.161896,399.001190 
	C228.078033,398.913513 195.994080,398.862274 163.910172,398.795471 
z"/>
<path fill="#84A9A9" opacity="1.000000" stroke="none" 
	d="
M163.655975,398.852844 
	C195.994080,398.862274 228.078033,398.913513 260.161896,399.001190 
	C282.931183,399.063416 305.700317,399.174774 328.785706,399.555756 
	C289.302032,399.897705 249.502213,399.976196 209.702393,399.984344 
	C194.224457,399.987518 178.746475,399.832062 163.074860,399.342224 
	C163.054733,398.927124 163.228256,398.918701 163.655975,398.852844 
z"/>
<path fill="#1B6261" opacity="1.000000" stroke="none" 
	d="
M156.699738,232.176666 
	C155.935715,235.951630 155.061188,239.989975 153.743805,243.878311 
	C152.077576,248.796326 153.212814,250.865341 158.304382,250.973419 
	C163.444199,251.082535 168.589600,251.072479 173.729935,250.975586 
	C179.534164,250.866165 180.900635,248.655853 178.990982,242.944870 
	C177.157150,237.460648 175.340195,231.968185 173.680603,226.429977 
	C173.219528,224.891373 172.641052,222.754761 173.324036,221.618164 
	C176.015305,217.139542 174.461517,213.006134 173.039459,208.371078 
	C178.402115,210.592590 178.371506,216.447983 176.584534,219.640579 
	C173.265533,225.570297 177.015411,229.641541 178.116943,234.400833 
	C179.108536,238.685028 180.851654,242.796371 181.821228,247.083923 
	C182.124100,248.423264 180.988892,250.087814 179.727844,251.822952 
	C170.647308,252.031693 162.350922,252.020981 154.054535,252.010254 
	C153.061325,250.682632 150.993088,249.073807 151.254501,248.074326 
	C152.645416,242.756531 154.620010,237.591415 156.699738,232.176666 
z"/>
<path fill="#DDFFF6" opacity="1.000000" stroke="none" 
	d="
M319.660156,336.123047 
	C320.031525,336.561340 319.822174,336.806213 318.807434,336.982483 
	C315.781219,337.004700 313.454773,337.007996 311.128326,337.005341 
	C265.430695,336.953430 219.733063,336.900818 174.035431,336.848389 
	C174.035431,336.848358 174.066650,336.384277 174.012604,336.158081 
	C222.367386,335.961243 270.776215,335.990601 319.660156,336.123047 
z"/>
<path fill="#135E5F" opacity="1.000000" stroke="none" 
	d="
M197.435577,198.111923 
	C197.739899,205.614212 197.896103,213.342880 197.986008,221.072342 
	C198.065552,227.911209 197.971649,227.573227 204.477768,226.196823 
	C216.456482,223.662674 228.067978,224.715363 238.959442,231.506500 
	C236.022507,230.873596 232.934738,229.933319 229.847534,228.991180 
	C220.870605,226.251694 211.927307,225.555908 202.874054,228.868561 
	C201.308273,229.441483 199.297256,228.797577 197.241974,227.916931 
	C196.987915,218.095078 196.983780,209.071976 196.979660,200.048889 
	C197.072647,199.478806 197.165649,198.908737 197.435577,198.111923 
z"/>
<path fill="#135E5F" opacity="1.000000" stroke="none" 
	d="
M334.969788,396.723419 
	C334.146484,397.011200 333.444458,397.012665 332.392456,397.016968 
	C333.024780,393.597443 334.766663,390.194427 334.854645,386.749207 
	C335.190247,373.603699 335.418854,360.425201 334.823029,347.298248 
	C334.503662,340.262543 332.391815,333.312378 331.153473,326.312164 
	C330.666168,323.557434 330.355164,320.771545 329.955536,317.573181 
	C331.935425,323.846893 333.923706,330.547302 335.972870,338.108032 
	C336.047058,357.598816 336.060394,376.229218 336.073669,394.859619 
	C335.746124,395.385468 335.418579,395.911285 334.969788,396.723419 
z"/>
<path fill="#1B6261" opacity="1.000000" stroke="none" 
	d="
M308.780365,291.096039 
	C309.922363,291.809021 311.841858,292.319244 312.088684,293.265656 
	C315.324280,305.672974 318.362457,318.132690 321.331879,330.607391 
	C321.693787,332.127838 321.367096,333.812164 321.112671,335.712219 
	C317.563446,324.547882 314.206573,313.107178 310.996246,301.625488 
	C310.169617,298.668884 309.804077,295.583344 309.038147,292.025391 
	C308.849609,291.493774 308.780365,291.096039 308.780365,291.096039 
z"/>
<path fill="#1B6261" opacity="1.000000" stroke="none" 
	d="
M149.762146,166.108429 
	C146.093384,173.917007 145.976990,175.198685 154.249939,178.170532 
	C161.987549,180.950104 164.064575,185.560318 163.086884,192.977097 
	C162.550812,197.043610 162.693710,201.199631 162.285950,205.207397 
	C162.028091,198.972946 162.124664,192.842575 161.911255,186.723007 
	C161.867142,185.457535 160.669998,184.232239 160.004288,182.988434 
	C156.837128,181.646301 153.478546,180.618546 150.571854,178.848663 
	C148.714355,177.717636 146.714111,175.687546 146.229736,173.705673 
	C145.536453,170.869125 145.068527,167.231613 149.762146,166.108429 
z"/>
<path fill="#5C9999" opacity="1.000000" stroke="none" 
	d="
M212.399719,320.323242 
	C233.772003,319.951172 255.300919,319.965759 276.829773,320.008301 
	C278.641266,320.011902 280.452362,320.203308 282.619263,320.517273 
	C259.502014,320.723785 236.029190,320.720490 212.399719,320.323242 
z"/>
<path fill="#135E5F" opacity="1.000000" stroke="none" 
	d="
M269.477173,229.059113 
	C270.361664,228.217514 271.543091,226.913208 272.951630,226.585724 
	C281.931396,224.497879 290.906128,223.725220 299.720398,227.527527 
	C300.735107,227.965271 301.990875,227.844208 303.856873,227.987518 
	C304.998932,227.996887 305.418945,228.000977 305.838989,228.005066 
	C303.366516,228.378265 300.561615,229.694931 298.479248,228.961136 
	C289.531525,225.808167 280.741028,226.151672 271.838379,228.745544 
	C271.209320,228.928818 270.533325,228.950989 269.477173,229.059113 
z"/>
<path fill="#1B6261" opacity="1.000000" stroke="none" 
	d="
M281.673340,280.179321 
	C279.789703,283.136047 277.551056,286.125092 274.278900,290.494110 
	C285.847748,290.494110 296.570923,290.494110 307.186615,290.766235 
	C295.474182,290.988159 283.869263,290.937988 272.264313,290.887817 
	C273.110260,285.487122 276.342651,282.110199 281.673340,280.179321 
z"/>
<path fill="#1B6261" opacity="1.000000" stroke="none" 
	d="
M174.380280,335.471466 
	C173.564819,334.874695 172.192642,333.725464 172.394516,333.039368 
	C175.132477,323.734802 178.088867,314.494476 181.311890,304.980957 
	C179.974091,311.673615 178.298569,318.619598 176.665009,325.575439 
	C175.919067,328.751709 175.255966,331.947418 174.380280,335.471466 
z"/>
<path fill="#135E5F" opacity="1.000000" stroke="none" 
	d="
M240.134003,232.301453 
	C241.470001,232.137253 243.485352,231.740082 244.314590,232.552933 
	C249.976852,238.103333 254.759949,233.913055 259.871582,231.633743 
	C262.516724,230.454285 265.433777,229.884796 268.634796,229.064362 
	C266.678558,230.347305 264.328522,231.631012 261.945679,232.850601 
	C261.066620,233.300507 259.907440,233.376373 259.220428,234.001389 
	C252.385101,240.219604 246.298279,236.954315 240.134003,232.301453 
z"/>
<path fill="#A8D6D8" opacity="1.000000" stroke="none" 
	d="
M336.462097,394.681061 
	C336.060394,376.229218 336.047058,357.598816 336.024048,338.501831 
	C336.342316,338.844849 336.956055,339.654388 336.956299,340.464081 
	C336.961914,358.476868 336.899780,376.489685 336.462097,394.681061 
z"/>
<path fill="#0E595C" opacity="1.000000" stroke="none" 
	d="
M158.103882,354.943817 
	C158.418854,357.701294 158.849365,360.451263 159.028564,363.217529 
	C159.762024,374.539612 160.418793,385.866669 161.096558,397.527832 
	C160.048706,396.465576 159.008118,395.067413 157.956055,392.850952 
	C157.997696,379.669708 158.050797,367.306763 158.103882,354.943817 
z"/>
<path fill="#0E595C" opacity="1.000000" stroke="none" 
	d="
M275.182098,276.605255 
	C281.043671,270.191376 287.229919,263.719055 293.761017,257.220093 
	C292.520264,259.186554 291.099426,261.343109 289.316711,263.140717 
	C284.799957,267.695282 280.120850,272.088806 275.182098,276.605255 
z"/>
<path fill="#135E5F" opacity="1.000000" stroke="none" 
	d="
M175.749939,281.288788 
	C173.648010,288.951721 171.205109,296.752625 168.501373,304.779053 
	C169.701019,298.890717 171.050873,292.747009 172.688171,286.680878 
	C173.190384,284.820251 174.479965,283.172180 175.749939,281.288788 
z"/>
<path fill="#135E5F" opacity="1.000000" stroke="none" 
	d="
M218.580399,188.912994 
	C217.024002,190.094559 215.178787,191.582306 213.071732,192.366699 
	C208.617477,194.024857 204.026428,195.315506 199.102203,196.735168 
	C199.731125,195.707367 200.578735,194.189911 201.796997,193.783463 
	C207.197540,191.981659 212.704483,190.498779 218.580399,188.912994 
z"/>
<path fill="#DDFFF6" opacity="1.000000" stroke="none" 
	d="
M158.029541,354.742249 
	C158.050797,367.306763 157.997696,379.669708 157.931488,392.500732 
	C157.614273,392.143463 157.046753,391.318390 157.045731,390.492615 
	C157.030685,378.474609 157.091415,366.456482 157.533691,354.274963 
	C157.933334,354.111511 157.955200,354.540649 158.029541,354.742249 
z"/>
<path fill="#A8D6D8" opacity="1.000000" stroke="none" 
	d="
M272.336517,291.324524 
	C283.869263,290.937988 295.474182,290.988159 307.544678,290.971313 
	C308.010254,290.904297 308.383759,291.046570 308.582062,291.071289 
	C308.780365,291.096039 308.849609,291.493774 308.855408,291.696045 
	C296.710388,291.852631 284.559570,291.806946 272.336517,291.324524 
z"/>
<path fill="#135E5F" opacity="1.000000" stroke="none" 
	d="
M329.911194,315.655151 
	C327.748810,309.552032 325.685120,303.056549 323.785553,296.278870 
	C325.969757,302.418701 327.989838,308.840729 329.911194,315.655151 
z"/>
<path fill="#A8D6D8" opacity="1.000000" stroke="none" 
	d="
M211.026215,290.860657 
	C211.453903,290.905365 211.881592,290.950073 212.974640,291.007935 
	C214.340591,291.014954 215.041168,291.008820 215.741760,291.002655 
	C214.294479,291.326172 212.851273,291.907623 211.399246,291.930603 
	C203.105240,292.061829 194.809143,292.060150 186.146790,292.049255 
	C185.830566,291.653870 185.881287,291.312836 185.932007,290.971832 
	C185.932007,290.971832 185.978531,291.006866 186.447540,291.010651 
	C194.953110,290.963196 202.989670,290.911926 211.026215,290.860657 
z"/>
<path fill="#0E595C" opacity="1.000000" stroke="none" 
	d="
M305.869598,227.734802 
	C305.418945,228.000977 304.998932,227.996887 304.262756,227.987671 
	C304.131744,218.866135 304.316864,209.749710 304.751526,200.747314 
	C305.275452,209.549515 305.549896,218.237732 305.824341,226.925934 
	C305.849640,227.105469 305.874908,227.285004 305.869598,227.734802 
z"/>
<path fill="#5C9999" opacity="1.000000" stroke="none" 
	d="
M305.874756,226.462234 
	C305.549896,218.237732 305.275452,209.549515 304.958191,200.383270 
	C304.951721,199.515305 304.988037,199.125381 304.998169,198.441559 
	C305.301605,200.307602 305.881317,202.463684 305.914764,204.628204 
	C306.024872,211.750000 305.937012,218.874863 305.874756,226.462234 
z"/>
<path fill="#5C9999" opacity="1.000000" stroke="none" 
	d="
M282.702393,306.645935 
	C273.651062,307.023468 264.397766,307.022369 254.699310,307.068359 
	C254.819901,306.751831 255.386139,306.071198 255.951355,306.072052 
	C264.801117,306.085266 273.650757,306.186432 282.702393,306.645935 
z"/>
<path fill="#5C9999" opacity="1.000000" stroke="none" 
	d="
M196.614868,200.273102 
	C196.983780,209.071976 196.987915,218.095078 197.009354,227.591660 
	C196.694534,226.247086 196.088730,224.430588 196.078278,222.610672 
	C196.035965,215.240112 196.176804,207.868515 196.614868,200.273102 
z"/>
<path fill="#1B6261" opacity="1.000000" stroke="none" 
	d="
M185.622574,291.135498 
	C185.881287,291.312836 185.830566,291.653870 185.923889,292.495941 
	C184.721558,296.361176 183.375168,299.725372 181.762833,303.210999 
	C180.696335,298.664062 181.944504,294.645386 185.622574,291.135498 
z"/>
<path fill="#A8D6D8" opacity="1.000000" stroke="none" 
	d="
M154.223236,252.413452 
	C162.350922,252.020981 170.647308,252.031693 179.403366,252.027771 
	C177.765961,252.340973 175.671768,252.925064 173.571289,252.948761 
	C167.179474,253.020874 160.785217,252.876663 154.223236,252.413452 
z"/>
<path fill="#A8D6D8" opacity="1.000000" stroke="none" 
	d="
M160.124374,183.398438 
	C160.669998,184.232239 161.867142,185.457535 161.911255,186.723007 
	C162.124664,192.842575 162.028091,198.972946 162.085907,205.570984 
	C162.130417,206.042465 161.961945,206.362946 161.686615,206.601898 
	C161.244827,206.908539 161.078354,206.976196 160.911880,207.043869 
	C160.689407,199.298721 160.466934,191.553574 160.124374,183.398438 
z"/>
<path fill="#1B6261" opacity="1.000000" stroke="none" 
	d="
M247.733795,121.100464 
	C246.141235,125.087181 242.402451,125.456284 238.405365,126.014496 
	C241.162216,124.348183 244.262039,122.659157 247.733795,121.100464 
z"/>
<path fill="#1B6261" opacity="1.000000" stroke="none" 
	d="
M233.760468,127.133865 
	C231.640594,131.784195 227.062531,132.210373 222.258148,132.992828 
	C225.698166,131.010681 229.546646,129.033005 233.760468,127.133865 
z"/>
<path fill="#135E5F" opacity="1.000000" stroke="none" 
	d="
M195.606384,278.364197 
	C191.952255,278.832275 187.868576,279.209015 183.428955,279.411194 
	C187.107620,278.915375 191.142227,278.594086 195.606384,278.364197 
z"/>
<path fill="#0E595C" opacity="1.000000" stroke="none" 
	d="
M294.554749,257.082886 
	C294.785919,254.345688 295.378235,251.590515 295.974060,248.434982 
	C300.228638,251.586151 297.345428,254.298874 294.554749,257.082886 
z"/>
<path fill="#135E5F" opacity="1.000000" stroke="none" 
	d="
M236.653839,183.118103 
	C233.947449,184.437622 230.858383,185.723083 227.369141,187.004486 
	C230.069717,185.694946 233.170456,184.389496 236.653839,183.118103 
z"/>
<path fill="#1B6261" opacity="1.000000" stroke="none" 
	d="
M161.616669,161.146301 
	C159.312088,162.484619 156.639786,163.771973 153.606277,165.084503 
	C155.913040,163.771561 158.581009,162.433441 161.616669,161.146301 
z"/>
<path fill="#1B6261" opacity="1.000000" stroke="none" 
	d="
M288.618103,278.101868 
	C287.500885,278.557343 286.002838,278.955383 284.232056,279.143036 
	C285.385315,278.636597 286.811310,278.340515 288.618103,278.101868 
z"/>
<path fill="#0E595C" opacity="1.000000" stroke="none" 
	d="
M158.283600,342.507599 
	C158.483276,345.124023 158.584824,348.178619 158.524109,351.578186 
	C158.303070,348.930695 158.244278,345.938232 158.283600,342.507599 
z"/>
<path fill="#135E5F" opacity="1.000000" stroke="none" 
	d="
M319.996155,282.639709 
	C318.717102,281.973206 317.422638,280.945343 316.033936,279.610413 
	C317.286682,280.295013 318.633728,281.286713 319.996155,282.639709 
z"/>
<path fill="#135E5F" opacity="1.000000" stroke="none" 
	d="
M225.625885,187.092163 
	C223.920959,187.769516 221.832657,188.380646 219.343079,188.972321 
	C221.042023,188.310547 223.142288,187.668228 225.625885,187.092163 
z"/>
<path fill="#1B6261" opacity="1.000000" stroke="none" 
	d="
M157.066132,219.237122 
	C157.938599,220.720932 158.734116,222.572220 159.354584,224.711197 
	C158.449417,223.200790 157.719299,221.402679 157.066132,219.237122 
z"/>
<path fill="#0E595C" opacity="1.000000" stroke="none" 
	d="
M271.243256,280.791290 
	C271.981476,279.594788 273.016022,278.281281 274.389160,276.914551 
	C273.665039,278.132294 272.602325,279.403290 271.243256,280.791290 
z"/>
<path fill="#135E5F" opacity="1.000000" stroke="none" 
	d="
M207.932098,279.598755 
	C206.228668,279.502838 204.416000,279.106934 202.329269,278.506226 
	C203.977753,278.633911 205.900299,278.966370 207.932098,279.598755 
z"/>
<path fill="#1B6261" opacity="1.000000" stroke="none" 
	d="
M158.676315,209.169434 
	C158.541489,211.089233 158.085663,213.197220 157.453445,215.598709 
	C157.636475,213.714020 157.995911,211.535828 158.676315,209.169434 
z"/>
<path fill="#1B6261" opacity="1.000000" stroke="none" 
	d="
M261.814453,124.743263 
	C260.718628,124.626839 259.451599,124.223106 258.071533,123.548294 
	C259.186768,123.670135 260.414978,124.063049 261.814453,124.743263 
z"/>
<path fill="#1B6261" opacity="1.000000" stroke="none" 
	d="
M256.906464,122.665070 
	C255.803391,122.627312 254.533386,122.258385 253.094421,121.598221 
	C254.196823,121.649284 255.468170,121.991600 256.906464,122.665070 
z"/>
<path fill="#135E5F" opacity="1.000000" stroke="none" 
	d="
M323.899841,293.760529 
	C323.208435,292.654114 322.601440,291.189026 321.995728,289.342529 
	C322.659424,290.441376 323.321838,291.921631 323.899841,293.760529 
z"/>
<path fill="#135E5F" opacity="1.000000" stroke="none" 
	d="
M321.737061,286.767395 
	C321.097107,285.960602 320.548340,284.822815 319.998901,283.337463 
	C320.608246,284.138672 321.218262,285.287506 321.737061,286.767395 
z"/>
<path fill="#1B6261" opacity="1.000000" stroke="none" 
	d="
M160.566895,206.994598 
	C161.078354,206.976196 161.244827,206.908539 161.674957,206.782578 
	C161.186890,207.468323 160.435181,208.212357 159.330994,208.975983 
	C159.392975,208.312149 159.807449,207.628738 160.566895,206.994598 
z"/>
<path fill="#135E5F" opacity="1.000000" stroke="none" 
	d="
M215.761658,290.689423 
	C215.041168,291.008820 214.340591,291.014954 213.292847,290.949829 
	C213.252640,290.125641 213.559570,289.372803 213.922729,288.319519 
	C214.579819,288.804810 215.180695,289.590485 215.761658,290.689423 
z"/>
<path fill="#0E595C" opacity="1.000000" stroke="none" 
	d="
M260.363464,291.028870 
	C260.798737,290.412262 261.540100,289.714905 262.619934,288.995422 
	C262.195435,289.631561 261.432495,290.289856 260.363464,291.028870 
z"/>
<path fill="#135E5F" opacity="1.000000" stroke="none" 
	d="
M210.883545,283.702454 
	C210.378754,283.204376 209.732574,282.425354 209.088593,281.308929 
	C209.641266,281.788208 210.191711,282.604889 210.883545,283.702454 
z"/>
<path fill="#1B6261" opacity="1.000000" stroke="none" 
	d="
M157.681442,229.021027 
	C157.907028,229.524323 157.847885,230.179871 157.565308,230.924103 
	C157.360153,230.399612 157.378448,229.786453 157.681442,229.021027 
z"/>
<path fill="#135E5F" opacity="1.000000" stroke="none" 
	d="
M177.773041,279.065552 
	C177.638641,279.693848 177.174286,280.288086 176.436066,280.980957 
	C176.589188,280.396881 177.016144,279.714203 177.773041,279.065552 
z"/>
<path fill="#0E595C" opacity="1.000000" stroke="none" 
	d="
M267.223755,284.793610 
	C267.424316,284.299042 267.900909,283.718506 268.663574,283.063110 
	C268.466400,283.561401 267.983093,284.134521 267.223755,284.793610 
z"/>
<path fill="#0E595C" opacity="1.000000" stroke="none" 
	d="
M264.227478,287.797913 
	C264.438477,287.305573 264.926483,286.725342 265.704529,286.071167 
	C265.497894,286.568146 265.001190,287.139099 264.227478,287.797913 
z"/>
<path fill="#0E595C" opacity="1.000000" stroke="none" 
	d="
M269.258118,282.844849 
	C269.439636,282.344238 269.893555,281.741058 270.631104,281.049164 
	C270.453339,281.554382 269.991943,282.148346 269.258118,282.844849 
z"/>
<path fill="#1B6261" opacity="1.000000" stroke="none" 
	d="
M237.735580,126.095177 
	C237.490753,126.421562 236.949539,126.780792 236.184448,127.066299 
	C236.453476,126.704391 236.946335,126.416199 237.735580,126.095177 
z"/>
<path fill="#135E5F" opacity="1.000000" stroke="none" 
	d="
M312.616882,279.100159 
	C312.144897,279.262207 311.304291,279.362640 310.239685,279.305786 
	C310.759888,279.111847 311.504120,279.075226 312.616882,279.100159 
z"/>
<path fill="#135E5F" opacity="1.000000" stroke="none" 
	d="
M213.955673,287.710876 
	C213.681320,287.527283 213.387268,287.043335 213.051758,286.273987 
	C213.318848,286.462585 213.627411,286.936523 213.955673,287.710876 
z"/>
<path fill="#1B6261" opacity="1.000000" stroke="none" 
	d="
M173.056595,207.653809 
	C172.730316,207.450348 172.429672,206.914719 172.098389,206.064575 
	C172.405899,206.273926 172.744064,206.797775 173.056595,207.653809 
z"/>
<path fill="#1B6261" opacity="1.000000" stroke="none" 
	d="
M152.725098,165.164673 
	C152.541519,165.449661 152.059006,165.700729 151.304047,165.997162 
	C151.496490,165.738602 151.961334,165.434677 152.725098,165.164673 
z"/>
<path fill="#135E5F" opacity="1.000000" stroke="none" 
	d="
M314.964111,278.788849 
	C314.871124,278.983307 314.678864,278.983307 314.197998,278.974609 
	C314.227905,278.842041 314.546387,278.718231 314.964111,278.788849 
z"/>
<path fill="#1B6261" opacity="1.000000" stroke="none" 
	d="
M265.885193,126.813553 
	C265.733337,126.906540 265.512665,126.769485 265.177338,126.457367 
	C265.359100,126.249649 265.610352,126.350052 265.885193,126.813553 
z"/>
<path fill="#0E595C" opacity="1.000000" stroke="none" 
	d="
M161.251160,398.152496 
	C161.415344,398.092651 161.615219,398.272034 161.908691,398.645447 
	C161.715698,398.780731 161.477234,398.631470 161.251160,398.152496 
z"/>
<path fill="#135E5F" opacity="1.000000" stroke="none" 
	d="
M180.748077,279.191101 
	C180.989532,279.228149 180.646088,279.425598 180.646088,279.425598 
	C180.646088,279.425598 180.254303,279.409088 180.142212,279.335541 
	C180.030121,279.261993 180.506622,279.154022 180.748077,279.191101 
z"/>
<path fill="#1B6261" opacity="1.000000" stroke="none" 
	d="
M268.999634,127.740334 
	C268.783081,127.893616 268.510834,127.732903 268.100891,127.350639 
	C268.259033,127.280800 268.585938,127.379883 268.999634,127.740334 
z"/>
<path fill="#1B6261" opacity="1.000000" stroke="none" 
	d="
M272.985352,129.753448 
	C272.784424,129.875305 272.520142,129.703125 272.117859,129.317200 
	C272.265350,129.266006 272.579407,129.384659 272.985352,129.753448 
z"/>
<path fill="#1B6261" opacity="1.000000" stroke="none" 
	d="
M220.761475,133.302490 
	C220.811920,133.478592 220.628357,133.657150 220.263931,133.920563 
	C220.134933,133.719315 220.283081,133.485809 220.761475,133.302490 
z"/>
<path fill="#1B6261" opacity="1.000000" stroke="none" 
	d="
M219.794815,134.176575 
	C219.842346,134.358948 219.621155,134.578995 219.161255,134.882507 
	C219.074341,134.682983 219.275513,134.432419 219.794815,134.176575 
z"/>
<path fill="#135E5F" opacity="1.000000" stroke="none" 
	d="
M208.986252,280.682159 
	C208.757248,280.786774 208.517883,280.588806 208.186096,280.150452 
	C208.349762,280.112518 208.643829,280.269012 208.986252,280.682159 
z"/>
<path fill="#0E595C" opacity="1.000000" stroke="none" 
	d="
M295.704041,246.769073 
	C295.501495,246.814621 295.321899,246.602997 295.093018,246.169495 
	C295.314850,246.069931 295.542603,246.258041 295.704041,246.769073 
z"/>
<path fill="#1B6261" opacity="1.000000" stroke="none" 
	d="
M181.639633,303.815338 
	C181.480331,303.768768 181.356339,303.567535 181.406189,303.362061 
	C181.580048,303.357819 181.674927,303.660645 181.639633,303.815338 
z"/>
<path fill="#135E5F" opacity="1.000000" stroke="none" 
	d="
M198.618591,196.889771 
	C198.674530,197.081360 198.469177,197.352844 198.039825,197.753113 
	C197.996338,197.577805 198.176834,197.273743 198.618591,196.889771 
z"/>
<path fill="#1B6261" opacity="1.000000" stroke="none" 
	d="
M158.796494,226.135956 
	C158.906326,226.321671 158.753326,226.548859 158.413223,226.892914 
	C158.159424,226.680710 158.261932,226.403259 158.796494,226.135956 
z"/>
<path fill="#135E5F" opacity="1.000000" stroke="none" 
	d="
M212.942078,285.747650 
	C212.724915,285.839874 212.481522,285.633148 212.156998,285.168213 
	C212.311157,285.142181 212.591141,285.321747 212.942078,285.747650 
z"/>
<path fill="#135E5F" opacity="1.000000" stroke="none" 
	d="
M211.952774,284.725891 
	C211.742844,284.824158 211.490402,284.626282 211.144287,284.174438 
	C211.295288,284.143646 211.581848,284.313416 211.952774,284.725891 
z"/>
<path fill="#0E595C" opacity="1.000000" stroke="none" 
	d="
M174.362885,337.102234 
	C219.733063,336.900818 265.430695,336.953430 311.128326,337.005341 
	C313.454773,337.007996 315.781219,337.004700 318.577820,337.074524 
	C317.105194,337.430267 315.162689,337.962646 313.219635,337.964752 
	C268.835358,338.012512 224.451065,338.009949 180.066788,337.975739 
	C178.274490,337.974365 176.482483,337.571747 174.362885,337.102234 
z"/>
<path fill="#135E5F" opacity="1.000000" stroke="none" 
	d="
M210.661133,290.664490 
	C202.989670,290.911926 194.953110,290.963196 186.447144,290.981537 
	C194.083847,290.788544 202.189941,290.628448 210.661133,290.664490 
z"/>
</svg>